<?xml version="1.0" encoding="utf-8"?>
<!-- Generator: Adobe Illustrator 27.0.0, SVG Export Plug-In . SVG Version: 6.00 Build 0)  -->
<svg version="1.1" id="Camada_1" xmlns="http://www.w3.org/2000/svg" xmlns:xlink="http://www.w3.org/1999/xlink" x="0px" y="0px"
	 viewBox="0 0 161 75" style="enable-background:new 0 0 161 75;" xml:space="preserve">
<style type="text/css">
	.st0{fill:#FFFFFF;}
</style>
<g>
	<path d="M42.8,40.7h-6.9V20.1h16.7v5.2h-9.8V40.7z M42.4,28.9h9v5.2h-9V28.9z"/>
	<path d="M54.8,40.7V20.1h9.9c1.9,0,3.6,0.3,5,0.9c1.4,0.6,2.5,1.5,3.2,2.7c0.8,1.2,1.1,2.5,1.1,4.1s-0.4,3-1.1,4.1
		c-0.8,1.1-1.8,2-3.2,2.6c-1.4,0.6-3.1,0.9-5,0.9h-6l3.1-2.8v8H54.8z M61.8,33.5l-3.1-3.1h5.6c1,0,1.7-0.2,2.1-0.6s0.7-1,0.7-1.8
		s-0.2-1.3-0.7-1.8c-0.5-0.4-1.2-0.6-2.1-0.6h-5.6l3.1-3.1V33.5z M67.1,40.7l-5.1-7.5h7.3l5.1,7.5H67.1z"/>
	<path d="M87.5,41.2c-1.7,0-3.2-0.3-4.7-0.8c-1.4-0.5-2.6-1.3-3.7-2.2c-1-1-1.8-2.1-2.4-3.4c-0.6-1.3-0.9-2.7-0.9-4.3
		c0-1.6,0.3-3,0.9-4.3c0.6-1.3,1.4-2.4,2.4-3.4c1-1,2.3-1.7,3.7-2.2c1.4-0.5,3-0.8,4.6-0.8c1.7,0,3.2,0.3,4.6,0.8
		c1.4,0.5,2.6,1.3,3.7,2.2s1.8,2.1,2.4,3.4c0.6,1.3,0.9,2.7,0.9,4.3c0,1.5-0.3,3-0.9,4.3s-1.4,2.5-2.4,3.4s-2.3,1.7-3.7,2.2
		C90.7,40.9,89.2,41.2,87.5,41.2z M87.5,35.6c0.6,0,1.2-0.1,1.8-0.4c0.6-0.2,1-0.6,1.5-1s0.7-1,1-1.6c0.2-0.6,0.4-1.4,0.4-2.2
		s-0.1-1.5-0.4-2.2c-0.2-0.6-0.6-1.2-1-1.6s-0.9-0.8-1.5-1c-0.6-0.2-1.2-0.4-1.8-0.4c-0.6,0-1.2,0.1-1.8,0.4c-0.6,0.2-1,0.6-1.5,1
		c-0.4,0.4-0.7,1-1,1.6c-0.2,0.6-0.4,1.4-0.4,2.2s0.1,1.5,0.4,2.2c0.2,0.6,0.6,1.2,1,1.6c0.4,0.4,0.9,0.8,1.5,1
		C86.2,35.4,86.8,35.6,87.5,35.6z"/>
	<path d="M105.8,40.7V25.5h-6v-5.4h19v5.4h-6v15.2H105.8z"/>
	<path d="M117.3,40.7l9-20.6h6.8l9,20.6h-7.2l-6.6-17.3h2.7l-6.6,17.3H117.3z M122.6,37.1l1.8-5h9.5l1.8,5H122.6z"/>
</g>
<path d="M147,54.8c-10.8-3.1-27.7-6.7-48-5c-34.6,2.8-52.4,18.4-65,10c-6-4-12-14.3-8-44c-4.3,0-8.7,0-13,0c0-1.7,0-3.3,0-5
	c10,0,20,0,30,0c0,1.7,0,3.3,0,5c-4,0-8,0-12,0c-1.7,14-2.1,31.7,7,37c6.9,4,15.9-1.1,27-5c13.5-4.7,34-8.7,63-4"/>
<path class="st0" d="M54.9,55.5c2.4-0.9,4.8-1.8,7.1-2.6c0.3,0,0.7,0,1,0c-2.4,0.9-4.8,1.8-7.1,2.6C55.6,55.6,55.3,55.6,54.9,55.5z"
	/>
<path class="st0" d="M60,54.8"/>
<path class="st0" d="M73.7,49.1c2.5-0.6,4.9-1.2,7.4-1.9c0.3,0.1,0.7,0.1,1,0.2c-2.5,0.6-4.9,1.2-7.4,1.9
	C74.4,49.2,74.1,49.2,73.7,49.1z"/>
<path class="st0" d="M92.3,45.5c2.5-0.1,5.1-0.1,7.6-0.2c0.3,0.1,0.6,0.2,0.9,0.4c-2.5,0.1-5.1,0.1-7.6,0.2
	C93,45.7,92.7,45.6,92.3,45.5z"/>
<path class="st0" d="M113.7,45.1c2.5,0.3,5,0.6,7.6,1c0.3,0.2,0.6,0.3,0.9,0.5c-2.5-0.3-5-0.6-7.6-1C114.3,45.4,114,45.3,113.7,45.1
	z"/>
</svg>
