<?xml version="1.0" encoding="utf-8"?>
<!-- Generator: Adobe Illustrator 27.0.0, SVG Export Plug-In . SVG Version: 6.00 Build 0)  -->
<svg version="1.1" id="Camada_1" xmlns="http://www.w3.org/2000/svg" xmlns:xlink="http://www.w3.org/1999/xlink" x="0px" y="0px"
	 viewBox="0 0 161 75" style="enable-background:new 0 0 161 75;" xml:space="preserve">
<style type="text/css">
	.st0{fill:#FFFFFF;}
</style>
<path class="st0" d="M54.9,55.5c2.4-0.9,4.8-1.8,7.1-2.6c0.3,0,0.7,0,1,0c-2.4,0.9-4.8,1.8-7.1,2.6C55.6,55.6,55.3,55.6,54.9,55.5z"
	/>
<path class="st0" d="M60,54.8"/>
<g>
	<path class="st0" d="M42.5,40.1h-6.9V19.5h16.7v5.2h-9.8V40.1z M42,28.3h9v5.2h-9V28.3z"/>
	<path class="st0" d="M54.5,40.1V19.5h9.9c1.9,0,3.6,0.3,5,0.9s2.5,1.5,3.2,2.7c0.8,1.2,1.1,2.5,1.1,4.1s-0.4,3-1.1,4.1
		c-0.8,1.1-1.8,2-3.2,2.6c-1.4,0.6-3.1,0.9-5,0.9h-6l3.1-2.8v8L54.5,40.1L54.5,40.1z M61.4,32.9l-3.1-3.1h5.6c1,0,1.7-0.2,2.1-0.6
		s0.7-1,0.7-1.8S66.5,26,66,25.5c-0.5-0.4-1.2-0.6-2.1-0.6h-5.6l3.1-3.1V32.9z M66.8,40.1l-5.1-7.5H69l5.1,7.5H66.8z"/>
	<path class="st0" d="M87.1,40.6c-1.7,0-3.2-0.3-4.7-0.8c-1.4-0.5-2.6-1.3-3.7-2.2c-1-1-1.8-2.1-2.4-3.4c-0.6-1.3-0.9-2.7-0.9-4.3
		c0-1.6,0.3-3,0.9-4.3s1.4-2.4,2.4-3.4s2.3-1.7,3.7-2.2c1.4-0.5,3-0.8,4.6-0.8c1.7,0,3.2,0.3,4.6,0.8s2.6,1.3,3.7,2.2
		s1.8,2.1,2.4,3.4s0.9,2.7,0.9,4.3c0,1.5-0.3,3-0.9,4.3s-1.4,2.5-2.4,3.4s-2.3,1.7-3.7,2.2C90.4,40.3,88.8,40.6,87.1,40.6z M87.1,35
		c0.6,0,1.2-0.1,1.8-0.4c0.6-0.2,1-0.6,1.5-1s0.7-1,1-1.6c0.2-0.6,0.4-1.4,0.4-2.2s-0.1-1.5-0.4-2.2c-0.2-0.6-0.6-1.2-1-1.6
		s-0.9-0.8-1.5-1s-1.2-0.4-1.8-0.4c-0.6,0-1.2,0.1-1.8,0.4c-0.6,0.2-1,0.6-1.5,1c-0.4,0.4-0.7,1-1,1.6c-0.2,0.6-0.4,1.4-0.4,2.2
		s0.1,1.5,0.4,2.2c0.2,0.6,0.6,1.2,1,1.6s0.9,0.8,1.5,1C85.9,34.8,86.5,35,87.1,35z"/>
	<path class="st0" d="M105.4,40.1V24.9h-6v-5.4h19v5.4h-6v15.2H105.4z"/>
	<path class="st0" d="M116.9,40.1l9-20.6h6.8l9,20.6h-7.2l-6.6-17.3h2.7L124,40.1H116.9z M122.2,36.5l1.8-5h9.5l1.8,5H122.2z"/>
</g>
<path class="st0" d="M146.6,54.2c-10.8-3.1-27.7-6.7-48-5c-34.6,2.8-52.4,18.4-65,10c-6-4-12-14.3-8-44c-4.3,0-8.7,0-13,0
	c0-1.7,0-3.3,0-5c10,0,20,0,30,0c0,1.7,0,3.3,0,5c-4,0-8,0-12,0c-1.7,14-2.1,31.7,7,37c6.9,4,15.9-1.1,27-5c13.5-4.7,34-8.7,63-4"/>
<path d="M54.6,54.9c2.4-0.9,4.8-1.8,7.1-2.6c0.3,0,0.7,0,1,0c-2.4,0.9-4.8,1.8-7.1,2.6C55.2,55,54.9,55,54.6,54.9z"/>
<path class="st0" d="M59.6,54.2"/>
<path d="M73.4,48.5c2.5-0.6,4.9-1.2,7.4-1.9c0.3,0.1,0.7,0.1,1,0.2c-2.5,0.6-4.9,1.2-7.4,1.9C74,48.6,73.7,48.6,73.4,48.5z"/>
<path d="M92,44.9c2.5-0.1,5.1-0.1,7.6-0.2c0.3,0.1,0.6,0.2,0.9,0.4c-2.5,0.1-5.1,0.1-7.6,0.2C92.6,45.1,92.3,45,92,44.9z"/>
<path d="M113.4,44.5c2.5,0.3,5,0.6,7.6,1c0.3,0.2,0.6,0.3,0.9,0.5c-2.5-0.3-5-0.6-7.6-1C113.9,44.8,113.7,44.7,113.4,44.5z"/>
</svg>
